<svg xmlns="http://www.w3.org/2000/svg" viewBox="0 0 1600 900" role="img" aria-label="Mission Control base map">
  <defs>
    <linearGradient id="bg" x1="0" y1="0" x2="1" y2="1">
      <stop offset="0%" stop-color="#11213e"/>
      <stop offset="100%" stop-color="#071327"/>
    </linearGradient>
    <linearGradient id="glow" x1="0" y1="0" x2="1" y2="0">
      <stop offset="0%" stop-color="#56b4ff" stop-opacity="0.4"/>
      <stop offset="100%" stop-color="#44f3b2" stop-opacity="0.35"/>
    </linearGradient>
  </defs>
  <rect width="1600" height="900" fill="url(#bg)"/>
  <g opacity="0.7" stroke="url(#glow)" fill="none">
    <rect x="120" y="90" width="380" height="220" rx="16"/>
    <rect x="560" y="120" width="460" height="250" rx="16"/>
    <rect x="1080" y="80" width="390" height="240" rx="16"/>
    <rect x="180" y="360" width="420" height="260" rx="16"/>
    <rect x="680" y="420" width="520" height="280" rx="16"/>
    <rect x="1240" y="380" width="250" height="220" rx="16"/>
  </g>
  <g opacity="0.55" stroke="#3a5788">
    <path d="M310 310L390 360M760 370L760 420M1020 245L1080 180M500 475L680 520M1200 560L1240 510"/>
  </g>
  <text x="50%" y="52%" text-anchor="middle" fill="#9fc3ff" font-family="Arial, sans-serif" font-size="44" font-weight="700" opacity="0.65">Yoshi Mission Control Grid</text>
</svg>
